<svg
 xmlns="http://www.w3.org/2000/svg"
 xmlns:xlink="http://www.w3.org/1999/xlink"
 width="19px" height="16px">
<path fill-rule="evenodd"  fill="rgb(230, 120, 23)"
 d="M17.191,0.924 L1.727,0.924 C0.819,0.924 0.078,1.664 0.078,2.573 L0.078,13.566 C0.078,14.472 0.816,15.215 1.727,15.215 L17.191,15.215 C18.097,15.215 18.840,14.477 18.840,13.566 L18.840,2.573 C18.840,1.667 18.102,0.924 17.191,0.924 ZM16.963,2.023 L9.494,9.493 L1.960,2.023 L16.963,2.023 ZM1.178,13.339 L1.178,2.795 L6.472,8.044 L1.178,13.339 ZM1.955,14.116 L7.253,8.818 L9.109,10.658 C9.324,10.872 9.671,10.871 9.885,10.657 L11.694,8.847 L16.963,14.116 L1.955,14.116 ZM17.741,13.339 L12.472,8.070 L17.741,2.801 L17.741,13.339 Z"/>
</svg>