<svg
 xmlns="http://www.w3.org/2000/svg"
 xmlns:xlink="http://www.w3.org/1999/xlink"
 width="26px" height="28px">
<path fill-rule="evenodd"  fill="rgb(0, 123, 194)"
 d="M23.157,2.762 C20.557,0.163 16.342,0.163 13.743,2.762 L0.403,16.171 C-0.029,16.606 -0.027,17.309 0.407,17.741 C0.842,18.172 1.544,18.171 1.976,17.737 L15.314,4.328 C17.044,2.598 19.855,2.598 21.588,4.331 C23.322,6.064 23.322,8.874 21.588,10.606 L7.857,24.409 C6.776,25.490 5.019,25.490 3.936,24.407 C2.853,23.324 2.853,21.568 3.936,20.485 L15.312,9.110 C15.312,9.110 15.313,9.109 15.313,9.109 C15.746,8.677 16.448,8.677 16.880,9.110 C17.314,9.542 17.314,10.245 16.880,10.678 L11.389,16.169 C10.956,16.603 10.956,17.306 11.390,17.739 C11.823,18.172 12.525,18.172 12.959,17.738 L18.450,12.247 C19.749,10.947 19.749,8.841 18.450,7.541 C17.150,6.241 15.043,6.241 13.743,7.541 C13.742,7.541 13.741,7.542 13.741,7.543 L2.367,18.916 C0.417,20.866 0.417,24.026 2.367,25.976 C4.317,27.925 7.478,27.925 9.428,25.976 L23.159,12.173 C25.757,9.576 25.757,5.361 23.157,2.762 Z"/>
</svg>