<svg
 xmlns="http://www.w3.org/2000/svg"
 xmlns:xlink="http://www.w3.org/1999/xlink"
 width="21px" height="18px">
<path fill-rule="evenodd"  fill="rgb(230, 120, 23)"
 d="M18.358,14.158 L15.430,14.158 L15.430,17.047 C15.430,17.366 15.172,17.625 14.852,17.625 L5.608,17.625 C5.289,17.625 5.030,17.366 5.030,17.047 L5.030,14.158 L2.103,14.158 C1.147,14.158 0.369,13.381 0.369,12.425 L0.369,8.958 C0.369,8.003 1.147,7.225 2.103,7.225 L5.030,7.225 L5.030,0.869 C5.030,0.550 5.289,0.291 5.608,0.291 L12.541,0.291 C14.134,0.291 15.430,1.587 15.430,3.181 L15.430,7.225 L18.358,7.225 C19.313,7.225 20.091,8.003 20.091,8.958 L20.091,12.425 C20.091,13.381 19.313,14.158 18.358,14.158 ZM6.186,16.469 L14.275,16.469 L14.275,13.003 L6.186,13.003 L6.186,16.469 ZM13.119,1.547 L13.119,2.603 L14.175,2.603 C14.001,2.111 13.611,1.721 13.119,1.547 ZM14.275,3.758 L12.541,3.758 C12.222,3.758 11.964,3.500 11.964,3.181 L11.964,1.447 L6.186,1.447 L6.186,7.225 L14.275,7.225 L14.275,3.758 ZM18.935,8.958 C18.935,8.640 18.676,8.381 18.358,8.381 L2.103,8.381 C1.784,8.381 1.525,8.640 1.525,8.958 L1.525,12.425 C1.525,12.744 1.784,13.003 2.103,13.003 L5.030,13.003 L5.030,12.425 C5.030,12.106 5.289,11.847 5.608,11.847 L14.852,11.847 C15.172,11.847 15.430,12.106 15.430,12.425 L15.430,13.003 L18.358,13.003 C18.676,13.003 18.935,12.744 18.935,12.425 L18.935,8.958 ZM14.852,10.692 C14.533,10.692 14.275,10.433 14.275,10.114 C14.275,9.795 14.533,9.536 14.852,9.536 C15.172,9.536 15.430,9.795 15.430,10.114 C15.430,10.433 15.172,10.692 14.852,10.692 ZM12.541,10.692 C12.222,10.692 11.964,10.433 11.964,10.114 C11.964,9.795 12.222,9.536 12.541,9.536 C12.860,9.536 13.119,9.795 13.119,10.114 C13.119,10.433 12.860,10.692 12.541,10.692 ZM12.541,15.314 L7.919,15.314 C7.600,15.314 7.341,15.055 7.341,14.736 C7.341,14.417 7.600,14.158 7.919,14.158 L12.541,14.158 C12.860,14.158 13.119,14.417 13.119,14.736 C13.119,15.055 12.860,15.314 12.541,15.314 Z"/>
</svg>