<svg
 xmlns="http://www.w3.org/2000/svg"
 xmlns:xlink="http://www.w3.org/1999/xlink"
 width="19px" height="18px">
<path fill-rule="evenodd"  fill="rgb(230, 120, 23)"
 d="M18.147,8.571 C17.982,8.663 17.782,8.656 17.625,8.558 L17.382,8.407 L17.382,17.094 C17.382,17.379 17.152,17.610 16.867,17.610 L2.379,17.610 C2.095,17.610 1.864,17.379 1.864,17.094 L1.864,8.407 L1.621,8.558 C1.462,8.657 1.262,8.662 1.099,8.571 C0.935,8.480 0.834,8.308 0.834,8.121 L0.834,5.691 C0.834,5.513 0.926,5.347 1.077,5.254 L9.351,0.101 C9.517,-0.003 9.729,-0.003 9.895,0.101 L18.169,5.254 C18.320,5.347 18.412,5.513 18.412,5.691 L18.412,8.121 C18.412,8.308 18.311,8.480 18.147,8.571 ZM2.894,16.579 L16.352,16.579 L16.352,7.766 L9.623,3.576 L2.894,7.766 L2.894,16.579 ZM17.382,5.977 L9.623,1.146 L1.864,5.977 L1.864,7.193 C2.650,6.704 8.860,2.837 9.351,2.531 C9.434,2.480 9.529,2.454 9.623,2.454 C9.717,2.454 9.812,2.480 9.895,2.531 C10.386,2.837 16.596,6.704 17.382,7.193 L17.382,5.977 ZM13.228,8.782 L13.228,15.034 C13.228,15.318 12.997,15.549 12.713,15.549 L6.533,15.549 C6.249,15.549 6.018,15.318 6.018,15.034 L6.018,8.782 C6.018,8.498 6.249,8.267 6.533,8.267 L12.713,8.267 C12.997,8.267 13.228,8.498 13.228,8.782 ZM10.138,9.297 L9.108,9.297 L9.108,10.328 L10.138,10.328 L10.138,9.297 ZM12.198,9.297 L11.168,9.297 L11.168,10.843 C11.168,11.128 10.937,11.358 10.653,11.358 L8.593,11.358 C8.309,11.358 8.078,11.128 8.078,10.843 L8.078,9.297 L7.048,9.297 L7.048,14.519 L12.198,14.519 L12.198,9.297 Z"/>
</svg>