<svg
 xmlns="http://www.w3.org/2000/svg"
 xmlns:xlink="http://www.w3.org/1999/xlink"
 width="29px" height="36px">
<path fill-rule="evenodd"  fill="rgb(172, 0, 0)"
 d="M25.017,35.486 L5.848,35.486 C3.795,35.486 2.125,33.817 2.125,31.764 L2.125,30.096 L1.761,30.096 C0.933,30.096 0.261,29.425 0.261,28.596 L0.261,19.500 C0.261,18.671 0.933,18.000 1.761,18.000 L2.125,18.000 L2.125,4.236 C2.125,2.186 3.795,0.514 5.848,0.514 L19.897,0.514 L28.739,9.323 L28.739,31.764 C28.739,33.817 27.068,35.486 25.017,35.486 ZM4.197,27.366 L5.610,27.366 L5.610,25.110 C5.741,25.129 5.910,25.138 6.097,25.138 C6.940,25.138 7.660,24.932 8.147,24.474 C8.522,24.118 8.728,23.594 8.728,22.976 C8.728,22.359 8.456,21.834 8.054,21.516 C7.632,21.179 7.005,21.011 6.125,21.011 C5.254,21.011 4.636,21.067 4.197,21.141 L4.197,27.366 ZM26.404,10.227 L21.626,10.240 C20.200,10.240 19.044,9.083 19.044,7.659 L19.044,2.782 L5.848,2.796 C5.053,2.796 4.406,3.443 4.406,4.236 L4.406,18.000 L22.276,18.000 C23.104,18.000 23.776,18.671 23.776,19.500 L23.776,28.596 C23.776,29.425 23.104,30.096 22.276,30.096 L4.406,30.096 L4.406,31.764 C4.406,32.559 5.053,33.206 5.848,33.206 L25.017,33.206 C25.812,33.206 26.458,32.559 26.458,31.764 L26.404,10.227 ZM9.639,21.141 L9.639,27.337 C9.994,27.384 10.519,27.431 11.258,27.431 C12.494,27.431 13.505,27.169 14.169,26.617 C14.778,26.103 15.218,25.269 15.218,24.062 C15.218,22.948 14.806,22.171 14.151,21.684 C13.543,21.226 12.765,21.011 11.567,21.011 C10.846,21.011 10.163,21.058 9.639,21.141 ZM19.856,24.829 L19.856,23.669 L17.590,23.669 L17.590,22.227 L20.015,22.227 L20.015,21.058 L16.158,21.058 L16.158,27.366 L17.590,27.366 L17.590,24.829 L19.856,24.829 ZM11.567,26.318 C11.390,26.318 11.193,26.318 11.071,26.289 L11.071,22.162 C11.193,22.134 11.398,22.106 11.717,22.106 C12.943,22.106 13.711,22.799 13.702,24.109 C13.702,25.616 12.859,26.327 11.567,26.318 ZM7.314,23.014 C7.314,23.660 6.846,24.043 6.088,24.043 C5.881,24.043 5.732,24.034 5.610,24.006 L5.610,22.143 C5.713,22.115 5.910,22.087 6.200,22.087 C6.911,22.087 7.314,22.433 7.314,23.014 Z"/>
</svg>