<svg
 xmlns="http://www.w3.org/2000/svg"
 xmlns:xlink="http://www.w3.org/1999/xlink"
 width="19px" height="19px">
<path fill-rule="evenodd"  fill="rgb(230, 120, 23)"
 d="M16.324,18.662 C17.473,18.662 18.407,17.723 18.407,16.570 L18.407,13.779 C18.407,13.479 18.215,13.213 17.931,13.118 L13.755,11.723 C13.551,11.654 13.327,11.684 13.147,11.803 L11.372,12.987 C9.466,12.083 7.213,9.851 6.318,7.979 L7.501,6.204 C7.620,6.025 7.650,5.800 7.582,5.596 L6.187,1.420 C6.092,1.136 5.825,0.944 5.525,0.944 L2.735,0.944 C1.581,0.944 0.642,1.878 0.642,3.027 C0.642,6.881 2.395,10.836 5.451,13.879 C8.503,16.919 12.466,18.662 16.324,18.662 L16.324,18.662 ZM2.735,2.339 L5.023,2.339 L6.151,5.714 L4.945,7.523 C4.818,7.714 4.792,7.956 4.878,8.169 C5.342,9.328 6.270,10.633 7.492,11.841 C8.705,13.042 10.016,13.960 11.182,14.427 C11.396,14.512 11.637,14.487 11.828,14.360 L13.637,13.154 L17.012,14.281 L17.012,16.570 C17.012,16.961 16.710,17.267 16.324,17.267 C8.981,17.267 2.038,10.347 2.038,3.027 C2.038,2.641 2.344,2.339 2.735,2.339 L2.735,2.339 Z"/>
</svg>