<svg xmlns="http://www.w3.org/2000/svg" viewBox="0 0 426.4 316"><path  fill-rule="evenodd"  fill="rgb(230, 120, 47)" d="M370.2,264.4a36,36,0,0,0-40.5,0,35.64,35.64,0,0,0-20.2-6.2,36.15,36.15,0,0,0,0,72.3,35.64,35.64,0,0,0,20.2-6.2,36.15,36.15,0,1,0,40.5-59.9Zm-8.1,40.4a16,16,0,0,1-22.6,2,13.89,13.89,0,0,1-2.1-2.1,9.66,9.66,0,0,0-7.7-3.5,9.92,9.92,0,0,0-7.7,3.6,15.64,15.64,0,0,1-12.4,5.8,16.18,16.18,0,0,1-16.2-16.1,16.06,16.06,0,0,1,28.5-10.3,10,10,0,0,0,14.1,1.5,10.61,10.61,0,0,0,1.5-1.5,16,16,0,1,1,24.6,20.6Z" transform="translate(0 -55.2)"/><path  fill-rule="evenodd"  fill="rgb(230, 120, 47)" d="M426,179.6c0-.9.4-1.9.4-2.9s-.4-1.9-.4-2.8V152.5c0-23.5-19.3-42.3-42.8-42.3H371V98.1c0-23.5-18.7-42.9-42.2-42.9H42.4C18.9,55.2,0,74.6,0,98.1V273.9a42.21,42.21,0,0,0,42.1,42.3H54v12.1a43,43,0,0,0,42.7,42.9H383.2A43.13,43.13,0,0,0,426,328.3V226.5c0-.9.4-1.9.4-2.8s-.4-1.9-.4-2.8ZM54,152.5V296.2H42.4A22.19,22.19,0,0,1,20,274.3V98.1c0-12.4,9.9-22.9,22.4-22.9H328.9c12.5,0,22.2,10.5,22.2,22.9v12.1H96.7A42.47,42.47,0,0,0,54,152.5ZM406,328.3a23,23,0,0,1-22.8,22.9H96.7A22.85,22.85,0,0,1,74,328.3V233.2H406Zm0-115.1H74v-26H406Zm.1-46H74V152.5a22.47,22.47,0,0,1,22.7-22.3H383.3a22.49,22.49,0,0,1,22.8,22.3v14.7Z" transform="translate(0 -55.2)"/></svg>