<svg
 xmlns="http://www.w3.org/2000/svg"
 xmlns:xlink="http://www.w3.org/1999/xlink"
 width="47px" height="47px">
<path fill-rule="evenodd"  fill="rgb(0, 123, 194)"
 d="M44.924,39.247 C46.845,41.166 47.302,43.852 45.599,45.555 L45.306,45.848 C43.603,47.552 40.917,47.095 38.997,45.174 C38.997,45.174 31.776,37.954 29.369,35.546 C28.926,35.104 28.401,35.416 28.401,35.416 C21.137,39.774 11.834,38.827 5.578,32.572 C-1.795,25.198 -1.795,13.201 5.578,5.828 C12.952,-1.546 24.949,-1.546 32.322,5.828 C38.577,12.083 39.524,21.386 35.166,28.651 C35.166,28.651 34.853,29.176 35.276,29.599 C37.688,32.011 44.924,39.247 44.924,39.247 ZM28.831,9.320 C23.382,3.872 14.518,3.872 9.070,9.320 C3.622,14.768 3.622,23.633 9.070,29.080 C14.518,34.529 23.383,34.529 28.831,29.080 C34.279,23.633 34.279,14.768 28.831,9.320 ZM26.230,21.968 L22.054,21.968 C22.054,21.968 21.594,21.981 21.594,22.419 C21.594,23.466 21.594,26.604 21.594,26.604 C21.594,27.429 20.918,28.105 20.093,28.105 L17.604,28.105 C16.779,28.105 16.103,27.429 16.103,26.604 C16.103,26.604 16.103,23.446 16.103,22.393 C16.103,21.990 15.642,21.968 15.642,21.968 L11.467,21.968 C10.641,21.968 9.965,21.293 9.965,20.467 L9.965,17.978 C9.965,17.153 10.641,16.476 11.467,16.476 L15.698,16.476 C15.698,16.476 16.103,16.445 16.103,16.032 C16.103,14.984 16.103,11.841 16.103,11.841 C16.103,11.015 16.779,10.340 17.604,10.340 L20.093,10.340 C20.918,10.340 21.594,11.015 21.594,11.841 C21.594,11.841 21.594,14.963 21.594,16.004 C21.594,16.445 22.022,16.476 22.022,16.476 L26.230,16.476 C27.056,16.476 27.731,17.153 27.731,17.978 L27.731,20.467 C27.731,21.293 27.056,21.968 26.230,21.968 Z"/>
</svg>