<svg xmlns="http://www.w3.org/2000/svg" width="26.4mm" height="18.6mm" viewBox="0 0 74.9 52.7">
  <defs>
    <style>
      .cls-1 {
        fill: #fff;
        fill-rule: evenodd;
      }
    </style>
  </defs>
  <title>Ресурс 1</title>
  <g id="Слой_2" data-name="Слой 2">
    <g id="cdr_layer2">
      <g>
        <polygon class="cls-1" points="37.5 0 74.9 16.2 0 16.2 37.5 0"/>
        <path class="cls-1" d="M52,18.7H74.9v34H52ZM70.5,45H66.9l-3.8-9.5-3.5,4.8V45H56.4V26.4h3.3v9.8l.9-1.4,6-8.4h3.3l-4.3,6.1Z"/>
        <path class="cls-1" d="M26,18.7H48.9v34H26ZM41.5,38.5l3,.3a7.4,7.4,0,0,1-2.1,4.6,6.4,6.4,0,0,1-4.7,1.8,6,6,0,0,1-4-1.3,8.2,8.2,0,0,1-2.4-3.5,13.6,13.6,0,0,1-.8-4.9,11.5,11.5,0,0,1,2-6.9,6.3,6.3,0,0,1,5.4-2.7,6.2,6.2,0,0,1,4.5,1.7,8.2,8.2,0,0,1,2.2,4.9l-3,.3q-.8-4.2-3.7-4.2A3.1,3.1,0,0,0,35,30.5a10.4,10.4,0,0,0-1,5.1A9.8,9.8,0,0,0,35,40.8a3.3,3.3,0,0,0,2.9,1.7,3.1,3.1,0,0,0,2.4-1.2A4.7,4.7,0,0,0,41.5,38.5Z"/>
        <path class="cls-1" d="M.3,18.7H22.8v34H.3ZM5.1,45V26.4H18.1V45H14.8V29.1H8.4V45Z"/>
      </g>
    </g>
  </g>
</svg>
